<svg xmlns="http://www.w3.org/2000/svg" x="0px" y="0px" width="95px" height="111px" viewBox="0 0 356.9 489.2">
  <g>
    <path fill="#a2a6c7" d="M143.4 272.4l-.9.3.9-.3z"/>
    <ellipse cx="161.6" cy="476.9" fill="#bfbfbf" rx="71" ry="17.3"/>
    <path fill="#e6e6e6" d="M230.4 451.1c0 5.7.9 16-6.9 15.8-16-.4-44.2-1.7-64.3-3.6-11.6-1.1-22.5-3.6-32.1-5.5-21.6-4.3-36.4-10-36.4-19.9 0-5.8.9-15.8 10.6-18.1 7.5-1.8 11.8-1.2 22.3-1.2 9.3 0 29.3 3.3 39.4 4.9 18.9 3 39.4 7.6 51.6 11.4 12 3.7 15.8 9.2 15.8 16.2z"/>
    <path fill="#ccc" d="M56.2 370.5c-1.8 2.6-5.8 7.5-9.9 8.8-3.7 1.1-9.4.5-11.8-1.6-1.4-1.2-3.7-3.6-4.3-5-.6-1.2-1.5-3.3-2.2-6.9-.6-3.2-.7-5.2-.5-8.3.2-3.7 4.2-16.6 6.9-22.6 1.9-4.2 12.1-22.7 17.8-29.1 4.8-5.4 9.4-10.7 13.5-13.5 2.8-1.9 7.7-5.5 10.7-6 5.8-1 8.9 3.5 8.2 8.6 0 0-8.5 26.3-11.7 35-3.8 10.4-6.6 17.6-9 23.4-2.2 6.1-6.2 15-7.7 17.2zM278 376.5c-1.6.6-4.6.8-7.2-.1-6.4-2.1-15.8-17.9-17.5-21.9-3.4-7.8-13.3-30-15.1-34.2-3.4-7.7-10.8-21.8-10.8-31.8 0-1 .6-2.3 1.4-2.9.5-.4 2.8-.7 3.8-.5.1 0 .4.3 1.1 1 1 1 3.4 4.5 5 6.7 4 5.3 10.9 16.3 14.3 21.9 4.7 7.7 8.2 13.8 10.5 19.2 2.4 5.5 9.3 21.2 11.8 27.3 1.3 3 2.2 6.4 2.8 9.9.6 2.5 1.1 4.9-.1 5.4z"/>
    <path fill="#e6e6e6" d="M216.3 412.7c-12.3 3.9-22.3 4.5-38.2 5.3-16.1.8-41.8.9-57.1-1.9-6.6-1.2-26.8-6.3-33.3-9.2-5.7-2.5-11.9-7.8-13.3-10.8-1.3-2.9-4.3-17.6-1.9-32.6 2.2-13.6 6.5-30.3 10.8-41.3 5-12.9 6.8-14 11.9-22.8 3.3-5.7 13.7-15.5 19.6-18.4 6.9-3.4 13.3-5.5 17.5-6.3 8.9-1.9 24.4-3.2 37.7-2.6 7.1.3 24.2 3.8 27.9 5.7 5.9 3 13.7 6.8 17.7 12.3 5.3 7.2 14.4 18.6 18.2 33.7 3 11.7 6.6 35 7.8 47.3.6 6.5 1.2 19.6-.8 25.9-2 6.4-18.2 13.7-24.5 15.7z"/>
    <path fill="#a2a6c7" d="M117.6 405.8z"/>
    <path fill="#c0c7d2" d="M110.6 385.6c0 .1 0 .1-.1.2v-.1l.1-.1z"/>
    <path fill="#8a94b1" d="M117.6 405.8z"/>
    <path fill="#a6aebf" d="M117.6 405.8z"/>
    <path fill="#b2b3d1" d="M110.5 385.6c.1 0 .1 0 0 0 .1.1.1.1 0 .2v-.2z"/>
    <path fill="#c2c2db" d="M110.6 385.6c0 .1 0 .1-.1.2v-.1l.1-.1z"/>
    <path fill="#7d7d7d" d="M158.8 363c-1.8-1.1-3.2-1.9-5.6-1.2l-.9.3c-2 .8-3.9 3.3-3.2 7l.3 1.2c1.2 3.4 5 7 14.1 10.3 1.1-1.3 2-2.5 2.8-3.6l-7.5-14z"/>
    <path fill="#b14356" d="M168.5 359.8c.3 0 .6 0 1 .1 2.1.2 4.6 2.2 4.9 5.9v1.3c-.3 3.6-3 8-10.9 13.6-7.9-5.6-10.7-10-10.9-13.6v-1.3c.3-3.8 2.8-5.7 4.9-5.9.4 0 .7-.1 1-.1 2.5 0 3.7 1.1 5 2.7 1.3-1.7 2.5-2.7 5-2.7"/>
    <linearGradient id="SVGID_1_" x1="185.828" x2="580.041" y1="365.958" y2="365.958" gradientTransform="matrix(.9086 .1163 -.1301 1.0168 -122.778 -283.42)" gradientUnits="userSpaceOnUse">
      <stop offset="0" stop-color="#b8b7ba"/>
      <stop offset=".32" stop-color="#bcbbbe"/>
      <stop offset=".654" stop-color="#c8c8c9"/>
      <stop offset=".994" stop-color="#dcdddd"/>
      <stop offset="1" stop-color="#dcdddd"/>
    </linearGradient>
    <path fill="url(#SVGID_1_)" d="M303.5 261.3c-6.2 2-9.4 2.8-16.6 4.2-8.4 1.6-25.4 3.3-33.9 3.5-34.5.9-103.4-5.4-143.5-13.2-5.8-1.1-27.1-6.5-35.7-9.2-10.3-3.3-23.4-7.8-31.4-13.3C33 226.9 23 220.5 13.5 208c-3.5-4.5-6.7-16.5-8.5-21.9-1.5-4.7-5.7-31.8-6.5-42.3-1.9-25.7 1.4-68.1 16.2-102.7 2.6-6.1 6-10.6 10.3-15.7C29.5 20.1 42.5 11.2 47.4 9 54.1 6.1 70.3 1.4 77.5.2c1.5-.3 20-2.1 21.6-2.4 4.2-.9 17-1 27.3-.4 55 3 99.6 8.9 130.9 15.9 19.2 4.3 25.8 6.6 48.7 14.5 19.1 6.6 38.1 20.7 44.3 30.6 7.2 11.6 8.4 11 10.1 30.2.9 9.8.4 30.9-.6 41.3-2.1 22.6-9.3 67.7-17.4 88.9-2.6 6.9-8.9 20.1-13 26.1-3.7 5.4-19.3 14.3-25.9 16.4z"/>
    <path fill="#2e2c53" d="M313.5 221.7c-7.9 4.1-16.3 6.4-24.8 8.8-4.8 1.2-6.7 1.7-10 2-8 .8-16 1.3-24.1.8-10.6-.8-25.4-1.3-25.5-1.4-16.7-.1-33.2-1.9-49.8-3.4-14.9-1.4-29.7-3.7-44.6-5.6-10.3-1.3-20.5-2.9-30.6-5.2-3-.7-26.9-6.8-37.8-9.6-4.5-1.1-8.8-2.7-13-4.6-8.7-3.8-17.1-8.6-24.3-14.7-3.1-2.6-14.5-15.1-17.7-19.8-3.3-4.9-4.6-9.7-6.2-14.8-2.2-7.2-1.9-14.8-2.4-22.2.6-15.7 1.6-31.4 4-47 .3-2.1 2-9.6 2.5-12.4 1.5-7.9 4.1-19.1 6-23.2 5-11 7-17.5 15.7-24.2 10-7.7 15.6-9.9 23.3-12.4 2.2-.7 4.1-1.6 6.6-2.2 11.2-2.8 22.5-3.2 34.1-3 18 .7 78.2 5.9 90.5 7.4 24.3 3 48.5 6.1 72.6 10.6 1.6.3 3.2.8 4.8 1.2 12.3 2.5 24.5 5.6 36.5 9.3 3.2 1.1 5.7 2.1 9.4 3.6.2-.1 28.5 14 30.6 16.3 13.4 11.9 18.2 27.4 18.6 44.7.6 25.2-2.5 50-7.4 74.7-4.3 21.9-17.5 36.3-37 46.3z"/>
    <path fill="#3c4c8b" d="M248.9 175.9c6.5 1.7 13.2 1.9 19.8 2.8-3.4 4.6-7.8 1-11.7 1.1-2.9.1-5.7-1.9-8.1-3.9z"/>
    <path fill="#0ac0fd" d="M100.3 159.7c-6.3-.7-15.1-2.5-21.8-3.6 1.4-9.7 11-93.4 11.4-95.7.3.1 22.1 2.7 22.1 2.7s-9.7 78.8-11.7 96.6z"/>
    <path fill="#08c1fc" d="M261 81.1s14.7 2.2 20.4 3.2c-.3 2.5-11.8 93.8-12.1 95-7.6-1-14.2-2.2-20.3-3.4"/>
  </g>
</svg>
