<?xml version="1.0" encoding="utf-8"?>
<!-- Generator: Adobe Illustrator 22.0.1, SVG Export Plug-In . SVG Version: 6.00 Build 0)  -->
<svg version="1.1" xmlns="http://www.w3.org/2000/svg" xmlns:xlink="http://www.w3.org/1999/xlink" x="0px" y="0px"
	 viewBox="0 0 356.9 489.2" style="enable-background:new 0 0 356.9 489.2;" xml:space="preserve">
<style type="text/css">
	.st0{display:none;}
	.st1{fill:#A2A6C7;}
	.st2{fill:#BFBFBF;}
	.st3{fill:#E6E6E6;}
	.st4{fill:#CCCCCC;}
	.st5{fill:#C0C7D2;}
	.st6{fill:#8A94B1;}
	.st7{fill:#A6AEBF;}
	.st8{fill:#B2B3D1;}
	.st9{fill:#C2C2DB;}
	.st10{fill:#7D7D7D;}
	.st11{fill:#B14356;}
	.st12{fill:url(#SVGID_1_);}
	.st13{fill:#2E2C53;}
	.st14{fill:#3C4C8B;}
	.st15{fill:#0AC0FD;}
	.st16{fill:#08C1FC;}
</style>
<g id="shadow" class="st0">
</g>
<g id="bottom" class="st0">
</g>
<g id="arm" class="st0">
</g>
<g id="body" class="st0">
</g>
<g id="heart" class="st0">
</g>
<g id="head">
	<g>
		<path class="st1" d="M143.4,272.4c-0.3,0.1-0.6,0.2-0.9,0.3C142.8,272.6,143.1,272.5,143.4,272.4z"/>
		<ellipse class="st2" cx="161.6" cy="476.9" rx="71" ry="17.3"/>
		<path class="st3" d="M230.4,451.1c0,5.7,0.9,16-6.9,15.8c-16-0.4-44.2-1.7-64.3-3.6c-11.6-1.1-22.5-3.6-32.1-5.5
			c-21.6-4.3-36.4-10-36.4-19.9c0-5.8,0.9-15.8,10.6-18.1c7.5-1.8,11.8-1.2,22.3-1.2c9.3,0,29.3,3.3,39.4,4.9
			c18.9,3,39.4,7.6,51.6,11.4C226.6,438.6,230.4,444.1,230.4,451.1z"/>
		<path class="st4" d="M56.2,370.5c-1.8,2.6-5.8,7.5-9.9,8.8c-3.7,1.1-9.4,0.5-11.8-1.6c-1.4-1.2-3.7-3.6-4.3-5
			c-0.6-1.2-1.5-3.3-2.2-6.9c-0.6-3.2-0.7-5.2-0.5-8.3c0.2-3.7,4.2-16.6,6.9-22.6c1.9-4.2,12.1-22.7,17.8-29.1
			c4.8-5.4,9.4-10.7,13.5-13.5c2.8-1.9,7.7-5.5,10.7-6c5.8-1,8.9,3.5,8.2,8.6c0,0-8.5,26.3-11.7,35c-3.8,10.4-6.6,17.6-9,23.4
			C61.7,359.4,57.7,368.3,56.2,370.5z"/>
		<path class="st4" d="M278,376.5c-1.6,0.6-4.6,0.8-7.2-0.1c-6.4-2.1-15.8-17.9-17.5-21.9c-3.4-7.8-13.3-30-15.1-34.2
			c-3.4-7.7-10.8-21.8-10.8-31.8c0-1,0.6-2.3,1.4-2.9c0.5-0.4,2.8-0.7,3.8-0.5c0.1,0,0.4,0.3,1.1,1c1,1,3.4,4.5,5,6.7
			c4,5.3,10.9,16.3,14.3,21.9c4.7,7.7,8.2,13.8,10.5,19.2c2.4,5.5,9.3,21.2,11.8,27.3c1.3,3,2.2,6.4,2.8,9.9
			C278.7,373.6,279.2,376,278,376.5z"/>
		<path class="st3" d="M216.3,412.7c-12.3,3.9-22.3,4.5-38.2,5.3c-16.1,0.8-41.8,0.9-57.1-1.9c-6.6-1.2-26.8-6.3-33.3-9.2
			c-5.7-2.5-11.9-7.8-13.3-10.8c-1.3-2.9-4.3-17.6-1.9-32.6c2.2-13.6,6.5-30.3,10.8-41.3c5-12.9,6.8-14,11.9-22.8
			c3.3-5.7,13.7-15.5,19.6-18.4c6.9-3.4,13.3-5.5,17.5-6.3c8.9-1.9,24.4-3.2,37.7-2.6c7.1,0.3,24.2,3.8,27.9,5.7
			c5.9,3,13.7,6.8,17.7,12.3c5.3,7.2,14.4,18.6,18.2,33.7c3,11.7,6.6,35,7.8,47.3c0.6,6.5,1.2,19.6-0.8,25.9
			C238.8,403.4,222.6,410.7,216.3,412.7z"/>
		<path class="st1" d="M117.6,405.8C117.6,405.8,117.6,405.8,117.6,405.8C117.6,405.8,117.6,405.8,117.6,405.8
			C117.6,405.8,117.6,405.8,117.6,405.8z"/>
		<path class="st5" d="M110.6,385.6c0,0.1,0,0.1-0.1,0.2c0,0,0-0.1,0-0.1L110.6,385.6C110.6,385.6,110.6,385.6,110.6,385.6z"/>
		<path class="st6" d="M117.6,405.8C117.6,405.8,117.6,405.8,117.6,405.8C117.6,405.8,117.6,405.8,117.6,405.8
			C117.6,405.8,117.6,405.8,117.6,405.8z"/>
		<path class="st7" d="M117.6,405.8C117.6,405.8,117.6,405.8,117.6,405.8C117.6,405.8,117.6,405.8,117.6,405.8
			C117.6,405.8,117.6,405.8,117.6,405.8z"/>
		<path class="st8" d="M110.5,385.6C110.6,385.6,110.6,385.6,110.5,385.6c0.1,0.1,0.1,0.1,0,0.2c0,0,0-0.1,0-0.1V385.6z"/>
		<path class="st9" d="M110.6,385.6c0,0.1,0,0.1-0.1,0.2c0,0,0-0.1,0-0.1L110.6,385.6C110.6,385.6,110.6,385.6,110.6,385.6z"/>
		<path class="st10" d="M158.8,363C158.8,363,158.8,363,158.8,363c-1.8-1.1-3.2-1.9-5.6-1.2c-0.3,0.1-0.6,0.2-0.9,0.3
			c-2,0.8-3.9,3.3-3.2,7l0.3,1.2c1.2,3.4,5,7,14.1,10.3c1.1-1.3,2-2.5,2.8-3.6L158.8,363z"/>
		<path class="st11" d="M168.5,359.8c0.3,0,0.6,0,1,0.1c2.1,0.2,4.6,2.2,4.9,5.9v1.3c-0.3,3.6-3,8-10.9,13.6
			c-7.9-5.6-10.7-10-10.9-13.6v-1.3c0.3-3.8,2.8-5.7,4.9-5.9c0.4,0,0.7-0.1,1-0.1c2.5,0,3.7,1.1,5,2.7
			C164.8,360.8,166,359.8,168.5,359.8"/>
		<g>
			
				<linearGradient id="SVGID_1_" gradientUnits="userSpaceOnUse" x1="185.8284" y1="365.9577" x2="580.0408" y2="365.9577" gradientTransform="matrix(0.9086 0.1163 -0.1301 1.0168 -122.7775 -283.4196)">
				<stop  offset="0" style="stop-color:#B8B7BA"/>
				<stop  offset="0.3198" style="stop-color:#BCBBBE"/>
				<stop  offset="0.6542" style="stop-color:#C8C8C9"/>
				<stop  offset="0.9942" style="stop-color:#DCDDDD"/>
				<stop  offset="1" style="stop-color:#DCDDDD"/>
			</linearGradient>
			<path class="st12" d="M303.5,261.3c-6.2,2-9.4,2.8-16.6,4.2c-8.4,1.6-25.4,3.3-33.9,3.5c-34.5,0.9-103.4-5.4-143.5-13.2
				c-5.8-1.1-27.1-6.5-35.7-9.2c-10.3-3.3-23.4-7.8-31.4-13.3C33,226.9,23,220.5,13.5,208c-3.5-4.5-6.7-16.5-8.5-21.9
				c-1.5-4.7-5.7-31.8-6.5-42.3c-1.9-25.7,1.4-68.1,16.2-102.7c2.6-6.1,6-10.6,10.3-15.7c4.5-5.3,17.5-14.2,22.4-16.4
				c6.7-2.9,22.9-7.6,30.1-8.8C79-0.1,97.5-1.9,99.1-2.2c4.2-0.9,17-1,27.3-0.4c55,3,99.6,8.9,130.9,15.9
				c19.2,4.3,25.8,6.6,48.7,14.5c19.1,6.6,38.1,20.7,44.3,30.6c7.2,11.6,8.4,11,10.1,30.2c0.9,9.8,0.4,30.9-0.6,41.3
				c-2.1,22.6-9.3,67.7-17.4,88.9c-2.6,6.9-8.9,20.1-13,26.1C325.7,250.3,310.1,259.2,303.5,261.3z"/>
			<path class="st13" d="M313.5,221.7c-7.9,4.1-16.3,6.4-24.8,8.8c-4.8,1.2-6.7,1.7-10,2c-8,0.8-16,1.3-24.1,0.8
				c-10.6-0.8-25.4-1.3-25.5-1.4c-16.7-0.1-33.2-1.9-49.8-3.4c-14.9-1.4-29.7-3.7-44.6-5.6c-10.3-1.3-20.5-2.9-30.6-5.2
				c-3-0.7-26.9-6.8-37.8-9.6c-4.5-1.1-8.8-2.7-13-4.6c-8.7-3.8-17.1-8.6-24.3-14.7c-3.1-2.6-14.5-15.1-17.7-19.8
				c-3.3-4.9-4.6-9.7-6.2-14.8c-2.2-7.2-1.9-14.8-2.4-22.2c0.6-15.7,1.6-31.4,4-47c0.3-2.1,2-9.6,2.5-12.4c1.5-7.9,4.1-19.1,6-23.2
				c5-11,7-17.5,15.7-24.2c10-7.7,15.6-9.9,23.3-12.4c2.2-0.7,4.1-1.6,6.6-2.2c11.2-2.8,22.5-3.2,34.1-3c18,0.7,78.2,5.9,90.5,7.4
				c24.3,3,48.5,6.1,72.6,10.6c1.6,0.3,3.2,0.8,4.8,1.2c12.3,2.5,24.5,5.6,36.5,9.3c3.2,1.1,5.7,2.1,9.4,3.6
				c0.2-0.1,28.5,14,30.6,16.3c13.4,11.9,18.2,27.4,18.6,44.7c0.6,25.2-2.5,50-7.4,74.7C346.2,197.3,333,211.7,313.5,221.7z"/>
			<path class="st14" d="M248.9,175.9c6.5,1.7,13.2,1.9,19.8,2.8c-3.4,4.6-7.8,1-11.7,1.1C254.1,179.9,251.3,177.9,248.9,175.9z"/>
			<path class="st15" d="M100.3,159.7c-6.3-0.7-15.1-2.5-21.8-3.6c1.4-9.7,11-93.4,11.4-95.7c0.3,0.1,22.1,2.7,22.1,2.7
				S102.3,141.9,100.3,159.7z"/>
			<path class="st16" d="M261,81.1c0,0,14.7,2.2,20.4,3.2c-0.3,2.5-11.8,93.8-12.1,95c-7.6-1-14.2-2.2-20.3-3.4"/>
		</g>
	</g>
</g>
</svg>
