<?xml version="1.0" encoding="utf-8"?>
<!-- Generator: Adobe Illustrator 22.0.1, SVG Export Plug-In . SVG Version: 6.00 Build 0)  -->
<svg version="1.1" xmlns="http://www.w3.org/2000/svg" xmlns:xlink="http://www.w3.org/1999/xlink" x="0px" y="0px"
	 viewBox="0 0 364.4 502.2" style="enable-background:new 0 0 364.4 502.2;" xml:space="preserve">
<style type="text/css">
	.st0{display:none;}
	.st1{fill:#A2A6C7;}
	.st2{fill:#BFBFBF;}
	.st3{fill:#E6E6E6;}
	.st4{fill:#CCCCCC;}
	.st5{fill:#C0C7D2;}
	.st6{fill:#8A94B1;}
	.st7{fill:#A6AEBF;}
	.st8{fill:#B2B3D1;}
	.st9{fill:#C2C2DB;}
	.st10{fill:#7D7D7D;}
	.st11{fill:#B14356;}
	.st12{fill:url(#SVGID_1_);}
	.st13{fill:#2E2C53;}
	.st14{fill:#3C4C8B;}
	.st15{fill:#0AC0FD;}
	.st16{fill:#08C1FC;}
</style>
<g id="阴影" class="st0">
</g>
<g id="底座" class="st0">
</g>
<g id="手臂" class="st0">
</g>
<g id="身子" class="st0">
</g>
<g id="心" class="st0">
</g>
<g id="头">
	<path class="st1" d="M182.7,282.1c-0.3,0.1-0.6,0.2-0.9,0.3C182.1,282.2,182.4,282.1,182.7,282.1z"/>
	<ellipse class="st2" cx="200.9" cy="486.6" rx="71" ry="17.3"/>
	<path class="st3" d="M270.8,463.4c0,5.7,0.9,16-6.9,15.8c-16-0.4-44.2-1.7-64.3-3.6c-11.6-1.1-22.5-3.6-32.1-5.5
		c-21.6-4.3-36.4-10-36.4-19.9c0-5.8,0.9-15.8,10.6-18.1c7.5-1.8,11.8-1.2,22.3-1.2c9.3,0,29.3,3.3,39.4,4.9
		c18.9,3,39.4,7.6,51.6,11.4C267.1,450.9,270.8,456.4,270.8,463.4z"/>
	<path class="st4" d="M95.5,380.1c-1.8,2.6-5.8,7.5-9.9,8.8c-3.7,1.1-9.4,0.5-11.8-1.6c-1.4-1.2-3.7-3.6-4.3-5
		c-0.6-1.2-1.5-3.3-2.2-6.9c-0.6-3.2-0.7-5.2-0.5-8.3c0.2-3.7,4.2-16.6,6.9-22.6c1.9-4.2,12.1-22.7,17.8-29.1
		c4.8-5.4,9.4-10.7,13.5-13.5c2.8-1.9,7.7-5.5,10.7-6c5.8-1,8.9,3.5,8.2,8.6c0,0-8.5,26.3-11.7,35c-3.8,10.4-6.6,17.6-9,23.4
		C101,369,97,378,95.5,380.1z"/>
	<path class="st4" d="M317.3,386.1c-1.6,0.6-4.6,0.8-7.2-0.1c-6.4-2.1-15.8-17.9-17.5-21.9c-3.4-7.8-13.3-30-15.1-34.2
		c-3.4-7.7-10.8-21.8-10.8-31.8c0-1,0.6-2.3,1.4-2.9c0.5-0.4,2.8-0.7,3.8-0.5c0.1,0,0.4,0.3,1.1,1c1,1,3.4,4.5,5,6.7
		c4,5.3,10.9,16.3,14.3,21.9c4.7,7.7,8.2,13.8,10.5,19.2c2.4,5.5,9.3,21.2,11.8,27.3c1.3,3,2.2,6.4,2.8,9.9
		C318,383.2,318.5,385.6,317.3,386.1z"/>
	<path class="st3" d="M255.6,422.4c-12.3,3.9-22.3,4.5-38.2,5.3c-16.1,0.8-41.8,0.9-57.1-1.9c-6.6-1.2-26.8-6.3-33.2-9.2
		c-5.7-2.5-11.9-7.8-13.3-10.8c-1.3-2.9-4.3-17.6-1.9-32.6c2.2-13.6,6.5-30.3,10.8-41.3c5-12.9,6.8-14,11.9-22.8
		c3.3-5.7,13.7-15.5,19.6-18.4c6.9-3.4,13.3-5.5,17.5-6.3c8.9-1.9,24.4-3.2,37.7-2.6c7.1,0.3,24.2,3.8,27.9,5.7
		c5.9,3,13.7,6.8,17.7,12.3c5.3,7.2,14.4,18.6,18.2,33.7c3,11.7,6.6,35,7.8,47.3c0.6,6.5,1.2,19.6-0.8,25.9
		C278.2,413,261.9,420.4,255.6,422.4z"/>
	<path class="st1" d="M156.9,415.4C156.9,415.4,156.9,415.4,156.9,415.4C156.9,415.4,156.9,415.4,156.9,415.4
		C156.9,415.4,156.9,415.4,156.9,415.4z"/>
	<path class="st5" d="M150,395.2c0,0.1,0,0.1-0.1,0.2c0,0,0-0.1,0-0.1L150,395.2C149.9,395.2,149.9,395.2,150,395.2z"/>
	<path class="st6" d="M156.9,415.4C156.9,415.4,156.9,415.4,156.9,415.4C156.9,415.4,156.9,415.4,156.9,415.4
		C156.9,415.4,156.9,415.4,156.9,415.4z"/>
	<path class="st7" d="M156.9,415.4C156.9,415.4,156.9,415.4,156.9,415.4C156.9,415.4,156.9,415.4,156.9,415.4
		C156.9,415.4,156.9,415.4,156.9,415.4z"/>
	<path class="st8" d="M149.9,395.2C149.9,395.2,149.9,395.2,149.9,395.2c0.1,0.1,0.1,0.1,0,0.2c0,0,0-0.1,0-0.1V395.2z"/>
	<path class="st9" d="M150,395.2c0,0.1,0,0.1-0.1,0.2c0,0,0-0.1,0-0.1L150,395.2C149.9,395.2,149.9,395.2,150,395.2z"/>
	<path class="st10" d="M198.1,372.6C198.1,372.7,198.1,372.7,198.1,372.6c-1.8-1.1-3.2-1.9-5.6-1.2c-0.3,0.1-0.6,0.2-0.9,0.3
		c-2,0.8-3.9,3.3-3.2,7l0.3,1.2c1.2,3.4,5,7,14.1,10.3c1.1-1.3,2-2.5,2.8-3.6L198.1,372.6z"/>
	<path class="st11" d="M207.8,369.4c0.3,0,0.6,0,1,0.1c2.1,0.2,4.6,2.2,4.9,5.9v1.3c-0.3,3.6-3,8-10.9,13.6
		c-7.9-5.6-10.7-10-10.9-13.6v-1.3c0.3-3.8,2.8-5.7,4.9-5.9c0.4,0,0.7-0.1,1-0.1c2.5,0,3.7,1.1,5,2.7
		C204.1,370.5,205.3,369.4,207.8,369.4"/>
	<g>
		
			<linearGradient id="SVGID_1_" gradientUnits="userSpaceOnUse" x1="119.7051" y1="278.8445" x2="513.9175" y2="278.8445" gradientTransform="matrix(0.9092 -0.1116 0.1249 1.0175 -140.2024 -112.5235)">
			<stop  offset="0" style="stop-color:#B8B7BA"/>
			<stop  offset="0.3198" style="stop-color:#BCBBBE"/>
			<stop  offset="0.6542" style="stop-color:#C8C8C9"/>
			<stop  offset="0.9942" style="stop-color:#DCDDDD"/>
			<stop  offset="1" style="stop-color:#DCDDDD"/>
		</linearGradient>
		<path class="st12" d="M336.4,228.9c-5.5,3.5-8.4,5.1-15,8.2c-7.7,3.6-23.8,9.4-32,11.8c-33.2,9.4-101.6,20.3-142.4,22.6
			c-5.9,0.3-27.8,0.4-36.9-0.1c-10.8-0.6-24.6-1.8-33.8-5.1c-10.7-3.9-22-7.6-34.3-17.4c-4.5-3.6-10.6-14.3-13.6-19.1
			c-2.6-4.2-13.4-29.4-16.8-39.4C3.6,165.9-3.7,123.9,2.1,86.8c1-6.6,3.2-11.7,6.1-17.8c3-6.3,13.4-18.1,17.6-21.4
			c5.8-4.5,20.4-13,27-16c1.5-0.7,19-7,20.5-7.8c3.9-2,16.3-5.1,26.4-7.1c54-10.7,98.7-15.9,130.8-16.9c19.6-0.6,26.6,0,50.8,2
			c20.1,1.7,42,10.6,50.5,18.8c9.9,9.5,10.9,8.6,17.3,26.7c3.3,9.3,8,29.9,9.6,40.2c3.5,22.5,7.7,67.9,5.1,90.5
			c-0.8,7.3-3.6,21.6-6.2,28.5C355.1,212.7,342.2,225.2,336.4,228.9z"/>
		<path class="st13" d="M336.3,188c-6.7,5.9-14.3,10.2-21.9,14.6c-4.3,2.4-6.1,3.3-9.2,4.4c-7.6,2.7-15.2,5.3-23.1,6.7
			c-10.4,1.9-24.9,5-25,4.9c-16.2,4-32.7,6.4-49.1,9c-14.8,2.3-29.7,3.7-44.6,5.6c-10.3,1.3-20.6,2.2-30.9,2.5
			c-3.1,0.1-27.8,0-39,0.1c-4.6,0-9.2-0.5-13.8-1.3c-9.4-1.5-18.7-4.1-27.2-8.2c-3.7-1.8-17.7-11.1-22-14.9c-4.4-4-6.9-8.3-9.7-12.8
			c-3.9-6.4-5.5-13.9-7.8-21c-3.3-15.4-6.2-30.8-7.7-46.5c-0.2-2.1-0.5-9.8-0.6-12.7c-0.5-8-0.7-19.6,0.1-24
			C6.7,82.5,7.1,75.7,13.9,67c7.8-10,12.7-13.5,19.5-17.8c1.9-1.2,3.6-2.5,5.8-3.7c10.1-5.5,21-8.6,32.3-11.3
			c17.6-3.8,77.2-13.6,89.6-15.2c24.3-3.1,48.5-6.1,73-7.6c1.7-0.1,3.3,0,5,0c12.6-0.6,25.1-0.7,37.7,0c3.4,0.3,6.1,0.6,10,1.2
			c0.2-0.2,31.1,6.5,33.7,8.2c15.9,8.2,24.4,22.1,29,38.7c6.9,24.3,9.9,49.1,11.3,74.2C361.9,156.3,352.7,173.5,336.3,188z"/>
		<path class="st14" d="M262.4,159.5c6.7,0,13.3-1.4,19.9-2.2c-2.2,5.3-7.3,2.9-11.1,4C268.4,162.2,265.2,160.9,262.4,159.5z"/>
		<path class="st15" d="M114.3,180.5c-6.3,0.8-15.3,1.3-22,1.9c-1.1-9.7-12.4-93.2-12.6-95.6c0.3,0,22.1-2.8,22.1-2.8
			S111.9,162.8,114.3,180.5z"/>
		<path class="st16" d="M250.6,64.7c0,0,14.8-1.5,20.6-1.9c0.4,2.5,11.7,93.8,11.7,95.1c-7.7,0.9-14.3,1.4-20.5,1.7"/>
	</g>
</g>
</svg>
