<?xml version="1.0" encoding="UTF-8"?>
<svg width="512px" height="512px" viewBox="0 0 512 512" version="1.1" xmlns="http://www.w3.org/2000/svg" xmlns:xlink="http://www.w3.org/1999/xlink">
    <!-- Generator: Sketch 42 (36781) - http://www.bohemiancoding.com/sketch -->
    <title>square-singe-960 copy 4ver1.0</title>
    <desc>Created with Sketch.</desc>
    <defs></defs>
    <g id="Page-1" stroke="none" stroke-width="1" fill="none" fill-rule="evenodd">
        <g id="square-singe-960-copy-4">
            <g id="Group" transform="translate(46.000000, 38.000000)">
                <path d="M338.827293,164.08749 C368.327158,235.232836 334.506121,316.79755 263.283538,346.269257 C192.060956,375.737131 110.407694,341.952771 80.9039915,270.807426 C51.4041266,199.66208 85.2251633,118.097366 156.447746,88.6256586 C227.670328,59.1577846 309.327428,92.9421444 338.827293,164.08749 L338.827293,164.08749 Z" id="Fill-1" fill="#FFFFFF"></path>
                <path d="M119.470258,305.535202 L173.097305,212.753759 C189.372696,184.589264 230.070766,184.589264 246.349994,212.753759 L299.977041,305.535202 C316.252432,333.699697 295.905316,368.906273 263.346859,368.906273 L156.096603,368.906273 C123.538146,368.906273 103.19103,333.699697 119.470258,305.535202" id="Fill-12" fill="#F8E1A9"></path>
                <path d="M338.629932,163.968957 C368.129797,235.114303 334.30876,316.679017 263.086178,346.150724 C191.863595,375.618598 110.210333,341.834238 80.7066309,270.688893 C51.2067661,199.543547 85.0278027,117.978833 156.250385,88.5071256 C227.472968,59.0392516 309.130067,92.8236113 338.629932,163.968957 M159.25525,5.87287406 C148.179849,8.5026336 140.182227,18.2013094 140.044072,29.5713776 C139.879054,42.9156822 132.879216,55.8344718 120.468319,62.9953913 C108.065098,70.1448104 93.3746488,69.7499632 81.7274406,63.2330664 C71.807166,57.6822037 59.4154575,59.7637772 51.5982044,68.0134018 C28.3882157,92.5207673 10.827219,122.421823 0.999047571,155.63883 C-2.1785104,166.380209 2.41513319,177.957284 12.0590984,183.672986 C23.556639,190.48506 31.2626009,203.005169 31.2626009,217.330842 C31.2626009,231.652681 23.556639,244.172789 12.0590984,250.984863 C2.41513319,256.700565 -2.1785104,268.277641 0.999047571,279.01902 C10.827219,312.236026 28.3882157,342.137082 51.5982044,366.644448 C59.4154575,374.894072 71.807166,376.975646 81.7274406,371.424783 C93.3746488,364.907886 108.065098,364.513039 120.468319,371.662458 C132.879216,378.823378 139.879054,391.742167 140.044072,405.086472 C140.182227,416.452707 148.179849,426.155216 159.25525,428.784976 C175.4347,432.622278 192.312598,434.65785 209.6702,434.65785 C227.023965,434.65785 243.901864,432.622278 260.081313,428.784976 C271.156715,426.155216 279.154336,416.452707 279.292491,405.086472 C279.457509,391.742167 286.461185,378.823378 298.872081,371.662458 C311.271465,364.513039 325.961914,364.907886 337.609123,371.424783 C347.533235,376.975646 359.921106,374.894072 367.738359,366.644448 C390.948347,342.137082 408.513182,312.236026 418.337516,279.01902 C421.515074,268.277641 416.92143,256.700565 407.277465,250.984863 C395.779924,244.172789 388.073962,231.652681 388.073962,217.330842 C388.073962,203.005169 395.779924,190.48506 407.277465,183.672986 C416.92143,177.957284 421.515074,166.380209 418.337516,155.63883 C408.513182,122.421823 390.948347,92.5207673 367.738359,68.0134018 C359.921106,59.7637772 347.533235,57.6822037 337.609123,63.2330664 C325.961914,69.7499632 311.271465,70.1448104 298.872081,62.9953913 C286.461185,55.8344718 279.457509,42.9156822 279.292491,29.5713776 C279.154336,18.2013094 271.156715,8.5026336 260.081313,5.87287406 C243.901864,2.03557188 227.023965,0 209.6702,0 C192.312598,0 175.4347,2.03557188 159.25525,5.87287406" id="Fill-7" fill="#231814"></path>
                <path d="M127.662448,156.647111 C140.495484,178.850561 161.257064,193.613249 184.305872,199.474623 C190.749254,176.604149 188.331547,151.261087 175.498511,129.057636 C162.665475,106.858019 141.903894,92.0914977 118.855086,86.230124 C112.407867,109.104432 114.829412,134.44366 127.662448,156.647111" id="Fill-8" fill="#F8E1A9"></path>
                <path d="M127.662448,156.647111 C140.495484,178.850561 161.257064,193.613249 184.305872,199.474623 C190.749254,176.604149 188.331547,151.261087 175.498511,129.057636 C162.665475,106.858019 141.903894,92.0914977 118.855086,86.230124 C112.407867,109.104432 114.829412,134.44366 127.662448,156.647111 L127.662448,156.647111 Z" id="Stroke-9" stroke="#231814" stroke-width="11.1408998"></path>
                <path d="M293.739741,156.647111 C280.906705,178.850561 260.145124,193.613249 237.096316,199.474623 C230.652935,176.604149 233.070642,151.261087 245.903678,129.057636 C258.736714,106.858019 279.498294,92.0914977 302.547103,86.230124 C308.994322,109.100598 306.572777,134.44366 293.739741,156.647111" id="Fill-10" fill="#F8E1A9"></path>
                <path d="M293.739741,156.647111 C280.906705,178.850561 260.145124,193.613249 237.096316,199.474623 C230.652935,176.604149 233.070642,151.261087 245.903678,129.057636 C258.736714,106.858019 279.498294,92.0914977 302.547103,86.230124 C308.994322,109.100598 306.572777,134.44366 293.739741,156.647111 L293.739741,156.647111 Z" id="Stroke-11" stroke="#231814" stroke-width="11.1408998"></path>
                <path d="M119.470258,305.535202 L173.097305,212.753759 C189.372696,184.589264 230.070766,184.589264 246.349994,212.753759 L299.977041,305.535202 C316.252432,333.699697 295.905316,368.906273 263.346859,368.906273 L156.096603,368.906273 C123.538146,368.906273 103.19103,333.699697 119.470258,305.535202 L119.470258,305.535202 Z" id="Stroke-13" stroke="#231814" stroke-width="11.1408998"></path>
                <path d="M220.860069,305.220474 L214.243995,316.671045 C212.233076,320.144168 207.213456,320.144168 205.202537,316.671045 L198.586463,305.220474 C196.575544,301.743518 199.089192,297.400198 203.107191,297.400198 L216.339341,297.400198 C220.35734,297.400198 222.86715,301.743518 220.860069,305.220474" id="Fill-14" fill="#231814"></path>
                <path d="M282.118245,255.873765 C282.118245,275.581627 266.123001,291.559525 246.393743,291.559525 C226.660648,291.559525 210.665404,275.581627 210.665404,255.873765 C210.665404,236.165902 226.660648,220.188005 246.393743,220.188005 C266.123001,220.188005 282.118245,236.165902 282.118245,255.873765" id="Fill-15" fill="#FFFFFF"></path>
                <path d="M282.118245,255.873765 C282.118245,275.581627 266.123001,291.559525 246.393743,291.559525 C226.660648,291.559525 210.665404,275.581627 210.665404,255.873765 C210.665404,236.165902 226.660648,220.188005 246.393743,220.188005 C266.123001,220.188005 282.118245,236.165902 282.118245,255.873765 L282.118245,255.873765 Z" id="Stroke-16" stroke="#231814" stroke-width="11.1408998"></path>
                <path d="M210.701094,255.873765 C210.701094,275.581627 194.705851,291.559525 174.976593,291.559525 C155.243497,291.559525 139.248254,275.581627 139.248254,255.873765 C139.248254,236.165902 155.243497,220.188005 174.976593,220.188005 C194.705851,220.188005 210.701094,236.165902 210.701094,255.873765" id="Fill-17" fill="#FFFFFF"></path>
                <path d="M210.701094,255.873765 C210.701094,275.581627 194.705851,291.559525 174.976593,291.559525 C155.243497,291.559525 139.248254,275.581627 139.248254,255.873765 C139.248254,236.165902 155.243497,220.188005 174.976593,220.188005 C194.705851,220.188005 210.701094,236.165902 210.701094,255.873765 L210.701094,255.873765 Z" id="Stroke-18" stroke="#231814" stroke-width="11.1408998"></path>
                <path d="M256.314785,244.439678 C262.635363,250.753401 262.635363,260.992596 256.314785,267.306319 C249.994208,273.623875 239.743897,273.623875 233.42332,267.306319 C227.098905,260.992596 227.098905,250.753401 233.42332,244.439678 C239.743897,238.125955 249.994208,238.125955 256.314785,244.439678" id="Fill-19" fill="#231814"></path>
                <path d="M245.193333,248.885735 C248.981074,252.669368 248.981074,258.799085 245.193333,262.582718 C241.405591,266.362519 235.26922,266.362519 231.481479,262.582718 C227.697576,258.799085 227.697576,252.669368 231.481479,248.885735 C235.26922,245.102101 241.405591,245.102101 245.193333,248.885735" id="Fill-20" fill="#FFFFFF"></path>
                <path d="M165.087403,267.307852 C158.766826,260.994129 158.766826,250.754934 165.087403,244.441211 C171.40798,238.123655 181.658291,238.123655 187.978868,244.441211 C194.303283,250.754934 194.303283,260.994129 187.978868,267.307852 C181.658291,273.621575 171.40798,273.621575 165.087403,267.307852" id="Fill-21" fill="#231814"></path>
                <path d="M176.208856,262.861795 C172.421115,259.078161 172.421115,252.948445 176.208856,249.164811 C179.996597,245.385011 186.132968,245.385011 189.920709,249.164811 C193.704613,252.948445 193.704613,259.078161 189.920709,262.861795 C186.132968,266.645429 179.996597,266.645429 176.208856,262.861795" id="Fill-22" fill="#FFFFFF"></path>
                <g id="Group-25" transform="translate(207.428747, 315.940386)">
                    <path d="M2.29413545,0.352295774 L2.29413545,19.2436296" id="Fill-23" fill="#FFFFFF"></path>
                    <path d="M2.29413545,0.352295774 L2.29413545,19.2436296" id="Stroke-24" stroke="#231814" stroke-width="5.56871403"></path>
                </g>
                <g id="Group-28" transform="translate(192.078225, 335.107730)">
                    <path d="M1.26795308,9.51965285 L17.643122,0.0739859461" id="Fill-26" fill="#FFFFFF"></path>
                    <path d="M1.26795308,9.51965285 L17.643122,0.0739859461" id="Stroke-27" stroke="#231814" stroke-width="5.56871403"></path>
                </g>
                <g id="Group-31" transform="translate(207.428747, 335.107730)">
                    <path d="M18.6708394,9.51965285 L2.2956705,0.0739859461" id="Fill-29" fill="#FFFFFF"></path>
                    <path d="M18.6708394,9.51965285 L2.2956705,0.0739859461" id="Stroke-30" stroke="#231814" stroke-width="5.56871403"></path>
                </g>
                <path d="M70.2426705,128.88398 C70.2426705,138.513654 62.429255,146.318596 52.7891274,146.318596 C43.1489999,146.318596 35.3355844,138.513654 35.3355844,128.88398 C35.3355844,119.254307 43.1489999,111.449365 52.7891274,111.449365 C62.429255,111.449365 70.2426705,119.254307 70.2426705,128.88398" id="Fill-33" fill="#FFFFFF"></path>
                <path d="M384.395316,128.88398 C384.395316,138.513654 376.581901,146.318596 366.941773,146.318596 C357.301646,146.318596 349.48823,138.513654 349.48823,128.88398 C349.48823,119.254307 357.301646,111.449365 366.941773,111.449365 C376.581901,111.449365 384.395316,119.254307 384.395316,128.88398" id="Fill-34" fill="#FFFFFF"></path>
                <path d="M227.319185,399.981137 C227.319185,409.610811 219.50577,417.415753 209.865642,417.415753 C200.225515,417.415753 192.412099,409.610811 192.412099,399.981137 C192.412099,390.351464 200.225515,382.546522 209.865642,382.546522 C219.50577,382.546522 227.319185,390.351464 227.319185,399.981137" id="Fill-35" fill="#FFFFFF"></path>
            </g>
        </g>
    </g>
</svg>