<?xml version="1.0" encoding="UTF-8"?>
<svg width="102px" height="40px" viewBox="0 0 102 40" version="1.1" xmlns="http://www.w3.org/2000/svg" xmlns:xlink="http://www.w3.org/1999/xlink">
    <!-- Generator: Sketch 43.2 (39069) - http://www.bohemiancoding.com/sketch -->
    <title>Page 1</title>
    <desc>Created with Sketch.</desc>
    <defs>
        <polygon id="path-1" points="0 39.7845614 101.860941 39.7845614 101.860941 0 0 0"></polygon>
    </defs>
    <g id="Page-1" stroke="none" stroke-width="1" fill="none" fill-rule="evenodd">
        <g id="Desktop-HD-Copy" transform="translate(-370.000000, -10.000000)">
            <g id="Page-1" transform="translate(370.000000, 10.000000)">
                <path d="M31.1433529,15.0082807 C33.8564118,21.5202105 30.7459412,28.9858246 24.1957059,31.6833684 C17.6454706,34.3805614 10.1359412,31.2882807 7.42252941,24.7763509 C4.70947059,18.2644211 7.81994118,10.798807 14.3701765,8.10126316 C20.9204118,5.40407018 28.4302941,8.49635088 31.1433529,15.0082807 L31.1433529,15.0082807 Z" id="Fill-1" fill="#F85532"></path>
                <mask id="mask-2" fill="white">
                    <use xlink:href="#path-1"></use>
                </mask>
                <g id="Clip-4"></g>
                <path d="M54.0236471,35.2196491 L57.1630588,35.2196491 L57.1630588,34.3835088 L54.0236471,34.3835088 L54.0236471,35.2196491 Z M54.0236471,33.4649123 L57.1630588,33.4649123 L57.1630588,32.6168421 L54.0236471,32.6168421 L54.0236471,33.4649123 Z M54.0236471,36.1501754 L54.0236471,38.0698246 L52.9694118,38.0698246 L52.9694118,31.6512281 L58.2289412,31.6512281 L58.2289412,36.7740351 C58.2289412,37.6221053 57.8971765,38.0459649 57.234,38.0459649 L56.1677647,38.0459649 L55.9072941,37.0452632 L56.9022353,37.0922807 C57.0758824,37.0922807 57.1630588,36.9115789 57.1630588,36.5505263 L57.1630588,36.1501754 L54.0236471,36.1501754 Z M55.3030588,27.1877193 L56.3929412,27.1877193 L56.3929412,28.1417544 L58.3591765,28.1417544 L58.3591765,29.1073684 L56.3929412,29.1073684 L56.3929412,29.9435088 L58.9990588,29.9435088 L58.9990588,30.98 L52.2585882,30.98 L52.2585882,29.9435088 L53.2418824,29.9435088 L53.2418824,27.8119298 L54.3434118,27.8119298 L54.3434118,29.9435088 L55.3030588,29.9435088 L55.3030588,27.1877193 Z M49.7117647,35.2080702 L50.8609412,35.2080702 L50.8609412,29.1312281 L49.7117647,29.1312281 L49.7117647,35.2080702 Z M51.9031765,28.1182456 L51.9031765,36.8919298 L50.8605882,36.8919298 L50.8605882,36.2442105 L49.7117647,36.2442105 L49.7117647,37.174386 L48.6335294,37.174386 L48.6335294,28.1182456 L51.9031765,28.1182456 Z" id="Fill-3" fill="#197CD9" mask="url(#mask-2)"></path>
                <path d="M76.908,31.8870175 L78.4835294,31.8870175 L78.4835294,30.8270175 L76.908,30.8270175 L76.908,31.8870175 Z M74.3375294,31.8870175 L75.8654118,31.8870175 L75.8654118,30.8270175 L74.3375294,30.8270175 L74.3375294,31.8870175 Z M71.7550588,31.8870175 L73.2949412,31.8870175 L73.2949412,30.8270175 L71.7550588,30.8270175 L71.7550588,31.8870175 Z M70.6648235,29.8964912 L79.5850588,29.8964912 L79.5850588,32.8052632 L73.5910588,32.8052632 L74.6572941,33.0291228 L74.2189412,33.5238596 L78.8862353,33.5238596 L78.8862353,34.3719298 C77.9304706,36.5231579 75.1348235,37.7754386 70.4992941,38.1284211 L69.966,37.174386 C71.49,37.0803509 72.8011765,36.8919298 73.8988235,36.6091228 C73.5592941,36.3347368 73.1488235,36.0284211 72.6670588,35.6908772 L73.4251765,34.9722807 C74.1042353,35.4042105 74.6728235,35.8203509 75.1309412,36.2207018 C76.284,35.7810526 77.1169412,35.2119298 77.6304706,34.5129825 L73.1643529,34.5129825 C72.5089412,35.0392982 71.7825882,35.5024561 70.9849412,35.902807 L70.2741176,35.0547368 C71.5295294,34.5052632 72.6116471,33.7554386 73.5197647,32.8052632 L70.6648235,32.8052632 L70.6648235,29.8964912 Z M69.8237647,27.9768421 L72.5011765,27.9768421 L72.5011765,27.1877193 L73.6503529,27.1877193 L73.6503529,27.9768421 L76.4932941,27.9768421 L76.4932941,27.1877193 L77.6421176,27.1877193 L77.6421176,27.9768421 L80.3195294,27.9768421 L80.3195294,29.0014035 L77.6421176,29.0014035 L77.6421176,29.6021053 L76.4932941,29.6021053 L76.4932941,29.0014035 L73.6503529,29.0014035 L73.6503529,29.6021053 L72.5011765,29.6021053 L72.5011765,29.0014035 L69.8237647,29.0014035 L69.8237647,27.9768421 Z" id="Fill-5" fill="#197CD9" mask="url(#mask-2)"></path>
                <path d="M94.3110706,27.2232632 L95.4366,27.2232632 L95.4366,30.7681754 C96.7633059,31.4825614 98.1334235,32.3029123 99.5473059,33.2292281 L98.8481294,34.2657193 C97.4977765,33.260807 96.3602471,32.4955439 95.4366,31.9692281 L95.4366,38.0695789 L94.3110706,38.0695789 L94.3110706,27.2232632 Z" id="Fill-6" fill="#197CD9" mask="url(#mask-2)"></path>
                <path d="M31.1433529,15.0082807 C33.8564118,21.5202105 30.7459412,28.9858246 24.1957059,31.6833684 C17.6454706,34.3805614 10.1359412,31.2882807 7.42252941,24.7763509 C4.70947059,18.2644211 7.81994118,10.798807 14.3701765,8.10126316 C20.9204118,5.40407018 28.4302941,8.49635088 31.1433529,15.0082807 M14.6465294,0.537754386 C13.6279412,0.77845614 12.8924118,1.66617544 12.8797059,2.70687719 C12.8645294,3.9282807 12.2207647,5.11073684 11.0793529,5.76617544 C9.93864706,6.4205614 8.58758824,6.38442105 7.51641176,5.78792982 C6.60405882,5.27985965 5.46441176,5.47038596 4.74547059,6.22547368 C2.61088235,8.46863158 0.995823529,11.2054737 0.0919411765,14.2458246 C-0.200294118,15.2289825 0.222176471,16.2886316 1.10911765,16.8117895 C2.16652941,17.4352982 2.87523529,18.5812632 2.87523529,19.8924912 C2.87523529,21.2033684 2.16652941,22.3493333 1.10911765,22.973193 C0.222176471,23.496 -0.200294118,24.5556491 0.0919411765,25.538807 C0.995823529,28.5791579 2.61088235,31.316 4.74547059,33.5591579 C5.46441176,34.3142456 6.60405882,34.5047719 7.51641176,33.9967018 C8.58758824,33.4002105 9.93864706,33.3640702 11.0793529,34.0184561 C12.2207647,34.6738947 12.8645294,35.8563509 12.8797059,37.0777544 C12.8924118,38.1181053 13.6279412,39.0061754 14.6465294,39.2468772 C16.1345294,39.5981053 17.6867647,39.7844211 19.2831176,39.7844211 C20.8791176,39.7844211 22.4313529,39.5981053 23.9193529,39.2468772 C24.9379412,39.0061754 25.6734706,38.1181053 25.6861765,37.0777544 C25.7013529,35.8563509 26.3454706,34.6738947 27.4868824,34.0184561 C28.6272353,33.3640702 29.9782941,33.4002105 31.0494706,33.9967018 C31.9621765,34.5047719 33.1014706,34.3142456 33.8204118,33.5591579 C35.955,31.316 37.5704118,28.5791579 38.4739412,25.538807 C38.7661765,24.5556491 38.3437059,23.496 37.4567647,22.9728421 C36.3993529,22.3493333 35.6906471,21.2033684 35.6906471,19.8924912 C35.6906471,18.5812632 36.3993529,17.4352982 37.4567647,16.8117895 C38.3437059,16.2886316 38.7661765,15.2289825 38.4739412,14.2458246 C37.5704118,11.2054737 35.955,8.46863158 33.8204118,6.22547368 C33.1014706,5.47038596 31.9621765,5.27985965 31.0494706,5.78792982 C29.9782941,6.38442105 28.6272353,6.4205614 27.4868824,5.76617544 C26.3454706,5.11073684 25.7013529,3.9282807 25.6861765,2.70687719 C25.6734706,1.66617544 24.9379412,0.77845614 23.9193529,0.537754386 C22.4313529,0.186526316 20.8791176,0.000210526316 19.2831176,0.000210526316 C17.6867647,0.000210526316 16.1345294,0.186526316 14.6465294,0.537754386" id="Fill-7" fill="#231814" mask="url(#mask-2)"></path>
                <path d="M31.1433529,15.0082807 C33.8564118,21.5202105 30.7459412,28.9858246 24.1957059,31.6833684 C17.6454706,34.3805614 10.1359412,31.2882807 7.42252941,24.7763509 C4.70947059,18.2644211 7.81994118,10.798807 14.3701765,8.10126316 C20.9204118,5.40407018 28.4302941,8.49635088 31.1433529,15.0082807" id="Fill-8" fill="#FFFFFF" mask="url(#mask-2)"></path>
                <path d="M11.7228353,14.3272632 C12.9030706,16.3595439 14.8124824,17.7107719 16.9322471,18.2472632 C17.5248353,16.1539298 17.3024824,13.8342807 16.1222471,11.802 C14.9420118,9.77007018 13.0326,8.41849123 10.9128353,7.882 C10.3198941,9.97533333 10.5426,12.2949825 11.7228353,14.3272632" id="Fill-9" fill="#F8E1A9" mask="url(#mask-2)"></path>
                <path d="M11.7228353,14.3272632 C12.9030706,16.3595439 14.8124824,17.7107719 16.9322471,18.2472632 C17.5248353,16.1539298 17.3024824,13.8342807 16.1222471,11.802 C14.9420118,9.77007018 13.0326,8.41849123 10.9128353,7.882 C10.3198941,9.97533333 10.5426,12.2949825 11.7228353,14.3272632 L11.7228353,14.3272632 Z" id="Stroke-10" stroke="#231814" stroke-width="1.12596491" mask="url(#mask-2)"></path>
                <path d="M26.9967176,14.3272632 C25.8164824,16.3595439 23.9070706,17.7107719 21.7873059,18.2472632 C21.1947176,16.1539298 21.4170706,13.8342807 22.5973059,11.802 C23.7775412,9.77007018 25.6869529,8.41849123 27.8067176,7.882 C28.3996588,9.97533333 28.1769529,12.2949825 26.9967176,14.3272632" id="Fill-11" fill="#F8E1A9" mask="url(#mask-2)"></path>
                <path d="M26.9967176,14.3272632 C25.8164824,16.3595439 23.9070706,17.7107719 21.7873059,18.2472632 C21.1947176,16.1539298 21.4170706,13.8342807 22.5973059,11.802 C23.7775412,9.77007018 25.6869529,8.41849123 27.8067176,7.882 C28.3996588,9.97533333 28.1769529,12.2949825 26.9967176,14.3272632 L26.9967176,14.3272632 Z" id="Stroke-12" stroke="#231814" stroke-width="1.12596491" mask="url(#mask-2)"></path>
                <path d="M10.9694118,27.9549825 L15.9014118,19.4627018 C17.3982353,16.884807 21.1411765,16.884807 22.6383529,19.4627018 L27.5703529,27.9549825 C29.0671765,30.5328772 27.1958824,33.7553333 24.2015294,33.7553333 L14.3378824,33.7553333 C11.3435294,33.7553333 9.47223529,30.5328772 10.9694118,27.9549825" id="Fill-13" fill="#F8E1A9" mask="url(#mask-2)"></path>
                <path d="M10.9694118,27.9549825 L15.9014118,19.4627018 C17.3982353,16.884807 21.1411765,16.884807 22.6383529,19.4627018 L27.5703529,27.9549825 C29.0671765,30.5328772 27.1958824,33.7553333 24.2015294,33.7553333 L14.3378824,33.7553333 C11.3435294,33.7553333 9.47223529,30.5328772 10.9694118,27.9549825 L10.9694118,27.9549825 Z" id="Stroke-14" stroke="#231814" stroke-width="1.12596491" mask="url(#mask-2)"></path>
                <path d="M20.2940824,27.9261754 L19.6856118,28.9742456 C19.5006706,29.2921404 19.0390235,29.2921404 18.8540824,28.9742456 L18.2456118,27.9261754 C18.0606706,27.6079298 18.2918471,27.210386 18.6613765,27.210386 L19.8783176,27.210386 C20.2478471,27.210386 20.4786706,27.6079298 20.2940824,27.9261754" id="Fill-15" fill="#231814" mask="url(#mask-2)"></path>
                <path d="M25.9279059,23.4094737 C25.9279059,25.2133333 24.4568471,26.6757895 22.6423765,26.6757895 C20.8275529,26.6757895 19.3564941,25.2133333 19.3564941,23.4094737 C19.3564941,21.605614 20.8275529,20.1431579 22.6423765,20.1431579 C24.4568471,20.1431579 25.9279059,21.605614 25.9279059,23.4094737" id="Fill-16" fill="#FFFFFF" mask="url(#mask-2)"></path>
                <path d="M25.9279059,23.4094737 C25.9279059,25.2133333 24.4568471,26.6757895 22.6423765,26.6757895 C20.8275529,26.6757895 19.3564941,25.2133333 19.3564941,23.4094737 C19.3564941,21.605614 20.8275529,20.1431579 22.6423765,20.1431579 C24.4568471,20.1431579 25.9279059,21.605614 25.9279059,23.4094737 L25.9279059,23.4094737 Z" id="Stroke-17" stroke="#231814" stroke-width="1.12596491" mask="url(#mask-2)"></path>
                <path d="M19.3597765,23.4094737 C19.3597765,25.2133333 17.8887176,26.6757895 16.0742471,26.6757895 C14.2594235,26.6757895 12.7883647,25.2133333 12.7883647,23.4094737 C12.7883647,21.605614 14.2594235,20.1431579 16.0742471,20.1431579 C17.8887176,20.1431579 19.3597765,21.605614 19.3597765,23.4094737" id="Fill-18" fill="#FFFFFF" mask="url(#mask-2)"></path>
                <path d="M19.3597765,23.4094737 C19.3597765,25.2133333 17.8887176,26.6757895 16.0742471,26.6757895 C14.2594235,26.6757895 12.7883647,25.2133333 12.7883647,23.4094737 C12.7883647,21.605614 14.2594235,20.1431579 16.0742471,20.1431579 C17.8887176,20.1431579 19.3597765,21.605614 19.3597765,23.4094737 L19.3597765,23.4094737 Z" id="Stroke-19" stroke="#231814" stroke-width="1.12596491" mask="url(#mask-2)"></path>
                <path d="M23.5548,22.3629123 C24.1360941,22.940807 24.1360941,23.878 23.5548,24.4558947 C22.9735059,25.0341404 22.0308,25.0341404 21.4495059,24.4558947 C20.8678588,23.878 20.8678588,22.940807 21.4495059,22.3629123 C22.0308,21.7850175 22.9735059,21.7850175 23.5548,22.3629123" id="Fill-20" fill="#231814" mask="url(#mask-2)"></path>
                <path d="M22.5319412,22.7698596 C22.8802941,23.1161754 22.8802941,23.6772281 22.5319412,24.0235439 C22.1835882,24.3695088 21.6192353,24.3695088 21.2708824,24.0235439 C20.9228824,23.6772281 20.9228824,23.1161754 21.2708824,22.7698596 C21.6192353,22.4235439 22.1835882,22.4235439 22.5319412,22.7698596" id="Fill-21" fill="#FFFFFF" mask="url(#mask-2)"></path>
                <path d="M15.1647529,24.4560351 C14.5834588,23.8781404 14.5834588,22.9409474 15.1647529,22.3630526 C15.7460471,21.784807 16.6887529,21.784807 17.2700471,22.3630526 C17.8516941,22.9409474 17.8516941,23.8781404 17.2700471,24.4560351 C16.6887529,25.0339298 15.7460471,25.0339298 15.1647529,24.4560351" id="Fill-22" fill="#231814" mask="url(#mask-2)"></path>
                <path d="M16.1875765,24.0490877 C15.8392235,23.7027719 15.8392235,23.1417193 16.1875765,22.7954035 C16.5359294,22.4494386 17.1002824,22.4494386 17.4486353,22.7954035 C17.7966353,23.1417193 17.7966353,23.7027719 17.4486353,24.0490877 C17.1002824,24.3954035 16.5359294,24.3954035 16.1875765,24.0490877" id="Fill-23" fill="#FFFFFF" mask="url(#mask-2)"></path>
                <g id="Group-26" mask="url(#mask-2)">
                    <g transform="translate(19.058824, 28.907368)"></g>
                </g>
                <g id="Group-29" mask="url(#mask-2)">
                    <g transform="translate(17.647059, 30.661754)">
                        <path d="M0.116611765,0.871333333 L1.62261176,0.00677192982" id="Fill-27" stroke="none" fill="#FFFFFF" fill-rule="evenodd"></path>
                        <path d="M0.116611765,0.871333333 L1.62261176,0.00677192982" id="Stroke-28" stroke="#231814" stroke-width="0.562807018" fill="none"></path>
                    </g>
                </g>
                <g id="Group-32" mask="url(#mask-2)">
                    <g transform="translate(19.058824, 30.661754)">
                        <path d="M1.71712941,0.871333333 L0.211129412,0.00677192982" id="Fill-30" stroke="none" fill="#FFFFFF" fill-rule="evenodd"></path>
                        <path d="M1.71712941,0.871333333 L0.211129412,0.00677192982" id="Stroke-31" stroke="#231814" stroke-width="0.562807018" fill="none"></path>
                    </g>
                </g>
                <path d="M37.4569059,22.9729825 C36.4750235,22.3940351 35.7945529,21.3642105 35.7020824,20.1701754 L32.1197294,20.1701754 C32.0096118,25.0736842 29.0463176,29.6859649 24.1958471,31.6835088 C17.6452588,34.3807018 10.1357294,31.2884211 7.42267059,24.7761404 C6.79443529,23.2684211 6.47890588,21.7094737 6.44572941,20.1701754 L2.86372941,20.1701754 C2.77125882,21.3642105 2.09078824,22.3940351 1.10890588,22.9729825 C0.222317647,23.4957895 -0.200505882,24.5557895 0.0917294118,25.5385965 C0.995611765,28.5792982 2.61102353,31.3157895 4.74561176,33.5589474 C5.4642,34.314386 6.60384706,34.5045614 7.51655294,33.9968421 C8.58772941,33.4003509 9.93843529,33.3638596 11.0791412,34.0185965 C12.2205529,34.6736842 12.8643176,35.8561404 12.8794941,37.0778947 C12.8925529,38.1182456 13.6280824,39.0063158 14.6463176,39.2470175 C16.1343176,39.5982456 17.6869059,39.7845614 19.2829059,39.7845614 C20.8792588,39.7845614 22.4314941,39.5982456 23.9194941,39.2470175 C24.9380824,39.0063158 25.6732588,38.1182456 25.6863176,37.0778947 C25.7014941,35.8561404 26.3452588,34.6736842 27.4866706,34.0185965 C28.6273765,33.3638596 29.9780824,33.4003509 31.0496118,33.9968421 C31.9619647,34.5045614 33.1016118,34.314386 33.8202,33.5589474 C35.9551412,31.3157895 37.5702,28.5792982 38.4740824,25.5385965 C38.7663176,24.5557895 38.3434941,23.4957895 37.4569059,22.9729825" id="Fill-33" fill="#231814" mask="url(#mask-2)"></path>
                <path d="M6.44202353,11.7861053 C6.44202353,12.6675088 5.72343529,13.3818947 4.83684706,13.3818947 C3.95025882,13.3818947 3.23167059,12.6675088 3.23167059,11.7861053 C3.23167059,10.9047018 3.95025882,10.1903158 4.83684706,10.1903158 C5.72343529,10.1903158 6.44202353,10.9047018 6.44202353,11.7861053" id="Fill-34" fill="#FFFFFF" mask="url(#mask-2)"></path>
                <path d="M35.3341765,11.7861053 C35.3341765,12.6675088 34.6155882,13.3818947 33.729,13.3818947 C32.8424118,13.3818947 32.1238235,12.6675088 32.1238235,11.7861053 C32.1238235,10.9047018 32.8424118,10.1903158 33.729,10.1903158 C34.6155882,10.1903158 35.3341765,10.9047018 35.3341765,11.7861053" id="Fill-35" fill="#FFFFFF" mask="url(#mask-2)"></path>
                <path d="M20.8881176,36.599614 C20.8881176,37.4810175 20.1695294,38.1954035 19.2829412,38.1954035 C18.3963529,38.1954035 17.6777647,37.4810175 17.6777647,36.599614 C17.6777647,35.7182105 18.3963529,35.0038246 19.2829412,35.0038246 C20.1695294,35.0038246 20.8881176,35.7182105 20.8881176,36.599614" id="Fill-36" fill="#FFFFFF" mask="url(#mask-2)"></path>
                <path d="M67.0706471,20.1585614 L61.6505294,20.1585614 C61.3688824,20.1585614 61.1405294,19.9315439 61.1405294,19.6515439 L61.1405294,15.4729474 C61.1405294,15.1929474 61.3688824,14.9659298 61.6505294,14.9659298 L67.0706471,14.9659298 C67.3522941,14.9659298 67.5806471,15.1929474 67.5806471,15.4729474 L67.5806471,19.6515439 C67.5806471,19.9315439 67.3522941,20.1585614 67.0706471,20.1585614 M59.4287647,14.7852281 L59.4287647,20.3389123 C59.4287647,21.1792632 60.1138235,21.8603158 60.9587647,21.8603158 L67.7620588,21.8603158 C68.6073529,21.8603158 69.2924118,21.1792632 69.2924118,20.3389123 L69.2924118,14.7852281 C69.2924118,13.9452281 68.6073529,13.2641754 67.7620588,13.2641754 L60.9587647,13.2641754 C60.1138235,13.2641754 59.4287647,13.9452281 59.4287647,14.7852281" id="Fill-37" fill="#231814" mask="url(#mask-2)"></path>
                <path d="M88.7830588,20.1585614 L83.3629412,20.1585614 C83.0812941,20.1585614 82.8529412,19.9315439 82.8529412,19.6515439 L82.8529412,15.4729474 C82.8529412,15.1929474 83.0812941,14.9659298 83.3629412,14.9659298 L88.7830588,14.9659298 C89.0647059,14.9659298 89.2930588,15.1929474 89.2930588,15.4729474 L89.2930588,19.6515439 C89.2930588,19.9315439 89.0647059,20.1585614 88.7830588,20.1585614 M81.1411765,14.7852281 L81.1411765,20.3389123 C81.1411765,21.1792632 81.8262353,21.8603158 82.6711765,21.8603158 L89.4748235,21.8603158 C90.3197647,21.8603158 91.0048235,21.1792632 91.0048235,20.3389123 L91.0048235,14.7852281 C91.0048235,13.9452281 90.3197647,13.2641754 89.4748235,13.2641754 L82.6711765,13.2641754 C81.8262353,13.2641754 81.1411765,13.9452281 81.1411765,14.7852281" id="Fill-38" fill="#231814" mask="url(#mask-2)"></path>
                <polygon id="Fill-39" fill="#231814" mask="url(#mask-2)" points="101.860835 13.2641754 91.9975412 13.2641754 91.9975412 14.9659298 96.0733059 14.9659298 96.0733059 21.8599649 97.7850706 21.8599649 97.7850706 14.9659298 101.860835 14.9659298"></polygon>
                <path d="M50.2842706,16.7113684 L50.2842706,14.9657544 L55.3585059,14.9657544 C55.6401529,14.9657544 55.8685059,15.1927719 55.8685059,15.4727719 L55.8685059,16.2043509 C55.8685059,16.4843509 55.6401529,16.7113684 55.3585059,16.7113684 L51.1196824,16.7113684 L50.2842706,16.7113684 Z M57.2823882,16.7727719 C57.4359176,16.5348772 57.5767412,16.2524211 57.5760353,15.9485614 L57.5700353,14.7910175 C57.5675647,13.9534737 56.8846235,13.2752281 56.0421529,13.2741754 L48.5725059,13.2643509 L48.5725059,21.8601404 L50.2842706,21.8601404 L50.2842706,18.4131228 L56.2143882,18.4131228 C56.4960353,18.4131228 56.7243882,18.6401404 56.7243882,18.9201404 L56.7243882,21.8601404 L58.4361529,21.8601404 L58.4361529,18.2324211 C58.4361529,17.5401404 57.9194471,16.9566316 57.2823882,16.7727719 L57.2823882,16.7727719 Z" id="Fill-40" fill="#231814" mask="url(#mask-2)"></path>
                <path d="M77.9195294,18.4130526 C78.2011765,18.4130526 78.4295294,18.6400702 78.4295294,18.9200702 L78.4295294,19.6516491 C78.4295294,19.9316491 78.2011765,20.1586667 77.9195294,20.1586667 L71.9894118,20.1586667 L71.9894118,18.4130526 L77.9195294,18.4130526 Z M71.9894118,14.9660351 L77.0636471,14.9660351 C77.3452941,14.9660351 77.5736471,15.1927018 77.5736471,15.4727018 L77.5736471,16.2042807 C77.5736471,16.4842807 77.3452941,16.7112982 77.0636471,16.7112982 L72.8244706,16.7112982 L71.9894118,16.7112982 L71.9894118,14.9660351 Z M80.1412941,18.2323509 C80.1412941,17.5400702 79.6242353,16.9565614 78.9875294,16.7727018 C79.1410588,16.534807 79.2818824,16.2523509 79.2811765,15.9484912 L79.2751765,14.7909474 C79.2727059,13.9534035 78.5894118,13.2751579 77.7469412,13.2741053 L70.2776471,13.2642807 L70.2776471,21.8600702 L71.1409412,21.8600702 L78.6112941,21.8600702 C79.4562353,21.8600702 80.1412941,21.1790175 80.1412941,20.3390175 L80.1412941,18.2323509 Z" id="Fill-41" fill="#231814" mask="url(#mask-2)"></path>
                <polygon id="Fill-42" fill="#231814" mask="url(#mask-2)" points="48.5724706 8.84035088 50.2842353 8.84035088 50.2842353 0.244561404 48.5724706 0.244561404"></polygon>
                <polygon id="Fill-43" fill="#231814" mask="url(#mask-2)" points="70.2850588 8.84035088 71.9968235 8.84035088 71.9968235 0.244561404 70.2850588 0.244561404"></polygon>
                <polygon id="Fill-44" fill="#231814" mask="url(#mask-2)" points="48.8996471 5.39298246 54.996 5.39298246 54.996 3.69122807 48.8996471 3.69122807"></polygon>
                <path d="M71.8086706,1.76533333 L71.9967882,2.45305263 C71.9967882,2.17305263 72.2251412,1.94603509 72.5067882,1.94603509 L77.9269059,1.94603509 C78.2085529,1.94603509 78.4369059,2.17305263 78.4369059,2.45305263 L78.4369059,8.84007018 L80.1486706,8.84007018 L80.1486706,1.76533333 C80.1486706,0.925333333 79.4636118,0.244280702 78.6183176,0.244280702 L73.0983176,0.244280702 C72.2533765,0.244280702 71.8086706,0.925333333 71.8086706,1.76533333" id="Fill-45" fill="#231814" mask="url(#mask-2)"></path>
                <polygon id="Fill-46" fill="#231814" mask="url(#mask-2)" points="57.2220706 0.244280702 58.4361882 0.244280702 58.4323059 1.4474386 54.9851294 4.87445614 53.7748941 3.67129825"></polygon>
                <polygon id="Fill-47" fill="#231814" mask="url(#mask-2)" points="58.4323765 7.63701754 58.4362588 8.84017544 57.2221412 8.84017544 53.7749647 5.41315789 54.9852 4.21"></polygon>
                <path d="M68.9862353,1.94585965 L68.9862353,0.244105263 L60.9589412,0.244105263 C60.1136471,0.244105263 59.4289412,0.925157895 59.4289412,1.76550877 L59.4289412,7.31919298 C59.4289412,8.15919298 60.1136471,8.84024561 60.9589412,8.84024561 L68.9862353,8.84024561 L68.9862353,7.13849123 L61.6503529,7.13849123 C61.3687059,7.13849123 61.1403529,6.91147368 61.1403529,6.63147368 L61.1403529,5.39287719 L67.4968235,5.39287719 L67.4968235,3.69147368 L61.1403529,3.69147368 L61.1403529,2.45287719 C61.1403529,2.17287719 61.3687059,1.94585965 61.6503529,1.94585965 L68.9862353,1.94585965 Z" id="Fill-48" fill="#231814" mask="url(#mask-2)"></path>
            </g>
        </g>
    </g>
</svg>